<svg version="1" xmlns="http://www.w3.org/2000/svg" width="1440" height="1440" viewBox="0 0 1080.000000 1080.000000"><path d="M866.8 338c4.2 9.8 4.2 10.2 4.2 143.2v128l-3.2-.6c-34-6.9-74.5-10.5-151.3-13.7-14.8-.6-27.4-1.2-27.9-1.2-.5-.1-2.6 5.2-4.6 11.8-6.2 20.1-12.1 32.8-22.8 49-8.5 12.8-29.1 33.7-41.2 41.7-17.8 11.8-38.4 20.3-60.5 24.9-10.8 2.3-12.5 2.3-81.2 2.7l-70.3.3-.2-54.4-.3-54.5-19.5 5.4c-58.8 16.4-107.5 37.9-152 67.1-19.3 12.8-36.6 26-43.4 33.4-6.4 6.9-6.4 7.4-1.4 17.1 3.8 7.2 19 22.3 29.5 29.3 13.2 8.7 285.3 172.6 293.5 176.7 18.3 9.2 34.7 8.7 53.7-1.8 10.3-5.7 282.8-170.1 290.6-175.4 9-6.1 17.9-15.5 21-22.2 4.9-10.5 5.8-17.8 5.1-41.1-1.3-49.8-2.6-80.7-3.5-87.7-.6-4.6-1-54.3-1.1-128.5-.1-97.8-.3-122.5-1.4-128.7-1.6-8.5-6.1-18-10.8-22.4l-2.9-2.9 1.9 4.5zM737 602c45.7 1.9 96.4 7.3 126.3 13.6l7.7 1.7v50.4l-10.2-2.9c-41.9-11.7-79.2-26.6-148.8-59.7l-8.5-4h4.5c2.5-.1 15.5.4 29 .9zM440.8 542.9c-5.3.3-9.9.8-10.1 1.1-.3.3-.7 1.4-.9 2.5-.2 1.4.2 2 1.5 1.9.9 0 7.8-.1 15.2-.2l13.5-.2v-3c0-3.4.9-3.3-19.2-2.1z"/><path d="M482 545.9c0 2.9.1 2.9 7.3 3.6 35.3 3.1 70.1 10.6 106.5 22.7 10.1 3.3 18.6 5.8 18.9 5.4.3-.3.7-2.5.7-4.7l.1-4.2-7-2.4c-12.5-4.3-36.7-11.1-49.4-13.7-24.2-5.1-57-9.5-71.3-9.6-5.7 0-5.8 0-5.8 2.9zM392 548.5c-47.3 8.3-91.9 22.2-132.9 41.6-14 6.7-33.4 16.9-32.9 17.4.2.2 7-3 15.1-7.1 34.4-17.5 67.9-29.7 108.1-39.4 14.7-3.6 46-9.4 54.6-10.2 2.8-.2 3.6-.8 3.8-2.6.4-2.6 1.2-2.7-15.8.3zM636.2 581.7c-1.2 4.3-1.1 4.9.4 6 1.7 1.2 1.7 1.3-.2 1.3-1.5 0-2.5 1.7-4.8 8.2-14.9 42.5-46.6 70.1-87.6 76.3-7 1.1-19.4 1.5-46.7 1.5H460v-35c0-30-.2-35-1.5-35-.8 0-7.5 1.2-14.9 2.6l-13.4 2.6-.4 3.6c-.1 2.1-.2 22.7 0 46l.3 42.3 58.7-.4c56-.3 59.1-.4 68.4-2.5 50.6-11.4 85.6-43.2 104.1-94.2 1.9-5.3 3.8-11.3 4.1-13.5l.7-4.1-4.8-1.6c-2.6-.8-8.4-3-12.8-4.8-4.4-1.7-8.7-3.4-9.5-3.6-1.1-.4-1.9.8-2.8 4.3z"/><path d="M580 591.1c-28.9 1.8-82.4 7.2-94.7 9.5l-3.3.6v52l29.8-.4c33.7-.5 38.1-1.2 53.7-8.8 18.2-9 35.3-28.1 43.4-48.8l2.1-5.2-9.3.1c-5 .1-14.8.5-21.7 1zM221.8 609.6c-3.8 2-3.6 2.8.2.9 1.7-.9 3-1.8 3-2 0-.7-.1-.6-3.2 1.1zM215.4 613.6c-1.8 1.4-1.8 1.5.4.4 1.2-.6 2.2-1.3 2.2-1.5 0-.8-.5-.6-2.6 1.1z"/></svg>